<svg xmlns="http://www.w3.org/2000/svg" viewBox="0 0 512 512" role="img" aria-label="PokeBattleDex icon">
  <defs>
    <linearGradient id="bg" x1="0" x2="1" y1="0" y2="0">
      <stop offset="0%" stop-color="#6d1f38" />
      <stop offset="55%" stop-color="#7f1f3b" />
      <stop offset="100%" stop-color="#5a1f3b" />
    </linearGradient>
    <pattern id="stripes" width="14" height="14" patternUnits="userSpaceOnUse">
      <rect width="14" height="14" fill="transparent" />
      <rect width="6" height="14" fill="#a52d50" opacity="0.12" />
    </pattern>
  </defs>

  <rect width="512" height="512" fill="url(#bg)" />
  <rect width="512" height="512" fill="url(#stripes)" />

  <g fill="#c3384f">
    <path d="M256 46 302 162 409 114 356 246 413 337 314 318 256 390 198 318 99 337 156 246 103 114 210 162Z" />
    <ellipse cx="86" cy="506" rx="120" ry="88" opacity="0.7" />
    <ellipse cx="426" cy="506" rx="120" ry="88" opacity="0.7" />
  </g>

  <path fill="#4b1e32" d="M174 310c-22 20-24 47-18 69 35-9 59-28 67-54-8-16-31-22-49-15Z" />
  <path fill="#4b1e32" d="M338 310c22 20 24 47 18 69-35-9-59-28-67-54 8-16 31-22 49-15Z" />
</svg>
